ply
format ascii 1.0
element vertex 11
property float x
property float y
property float z
property float nx
property float ny
property float nz
property float red
property float green
property float blue
end_header
1.000 15.00 2.000 0.01 0.02 0.03 0.01 0.02 0.03
3.000 -31.0 4.000 0.04 0.05 0.06 0.04 0.05 0.06
-14.0 5.000 6.000 0.07 0.08 0.09 0.07 0.08 0.09
46.00 7.000 8.000 0.10 0.11 0.12 0.10 0.11 0.12
9.000 10.00 24.00 0.13 0.14 0.15 0.13 0.14 0.15
11.00 12.00 -51.0 0.16 0.17 0.18 0.16 0.17 0.18
13.00 -12.0 9.000 0.19 0.20 0.21 0.19 0.20 0.21
-5.00 -8.00 1.000 0.22 0.23 0.24 0.22 0.23 0.24
14.00 11.00 -4.00 0.25 0.26 0.27 0.25 0.26 0.27
7.000 3.000 -12.0 0.28 0.29 0.30 0.28 0.29 0.30
12.00 5.000 0.000 0.31 0.32 0.33 0.31 0.32 0.33