ply
format ascii 1.0
element vertex 11
property float red
property float green
property float blue
property float x
property float y
property float z
end_header
0.01 0.02 0.03 1.000 15.00 2.000
0.04 0.05 0.06 3.000 -31.0 4.000
0.07 0.08 0.09 -14.0 5.000 6.000
0.10 0.11 0.12 46.00 7.000 8.000
0.13 0.14 0.15 9.000 10.00 24.00
0.16 0.17 0.18 11.00 12.00 -51.0
0.19 0.20 0.21 13.00 -12.0 9.000
0.22 0.23 0.24 -5.00 -8.00 1.000
0.25 0.26 0.27 14.00 11.00 -4.00
0.28 0.29 0.30 7.000 3.000 -12.0
0.31 0.32 0.33 12.00 5.000 0.000